<svg version="1.1" id="Layer_1" xmlns="http://www.w3.org/2000/svg" xmlns:xlink="http://www.w3.org/1999/xlink" x="0px" y="0px"
	 width="100%" viewBox="330 90 370 410" enable-background="new 330 90 370 410" xml:space="preserve">
<path fill="#000000" opacity="1.000000" stroke="none" 
	d="
M572.886597,456.022034 
	C514.046387,477.132324 460.223328,467.790833 410.663269,431.160309 
	C408.194427,429.335510 406.561523,428.868835 403.722839,430.642578 
	C391.021301,438.579102 374.952240,436.730255 364.611176,426.486053 
	C353.541382,415.520020 351.265991,399.893768 359.244476,386.726135 
	C361.355347,383.242371 361.392822,380.770691 359.231323,377.322754 
	C344.329102,353.551453 334.732330,327.782196 331.827148,299.814606 
	C327.888184,261.895813 335.787903,226.329453 354.360962,193.109497 
	C357.122131,188.170792 360.013123,183.260971 363.335327,178.695282 
	C365.468536,175.763641 365.255463,173.738876 363.456543,170.735916 
	C351.706390,151.121246 362.589661,126.730247 384.976257,122.208771 
	C392.077118,120.774582 398.982788,121.715157 405.382050,125.004349 
	C408.160187,126.432289 410.121552,126.177208 412.631287,124.520462 
	C435.064423,109.711502 459.535980,100.021019 486.203857,96.394440 
	C537.624695,89.401718 584.148560,101.475426 625.031128,133.581299 
	C657.655090,159.201538 679.662903,192.147842 689.689819,232.536423 
	C702.470093,284.015686 695.680054,332.975739 669.131775,379.000488 
	C666.981018,382.729095 666.737427,385.471100 668.768066,389.438263 
	C675.113831,401.835510 672.080627,417.168427 662.040466,426.605988 
	C651.574829,436.443542 636.326599,438.571960 624.173279,431.401459 
	C620.795959,429.408813 618.635315,429.811890 615.811584,432.032959 
	C602.882935,442.202148 588.562805,449.942139 572.886597,456.022034 
M422.869568,147.170456 
	C425.381744,163.408951 419.154785,176.174133 404.654663,183.538345 
	C401.321625,185.231079 401.051788,187.537857 401.417938,190.448273 
	C404.044830,211.326370 409.849365,231.165100 420.888367,249.256561 
	C421.798370,250.747925 422.420624,252.617859 424.753998,253.182159 
	C434.367157,244.542542 443.953522,235.650497 455.969727,229.010422 
	C456.640808,232.828598 454.701080,235.275696 454.396362,237.995285 
	C453.136414,249.239960 447.257843,257.114777 439.091827,265.080872 
	C410.441162,293.030121 394.553375,327.290131 392.729279,367.681427 
	C392.585205,370.871521 394.042908,371.787598 396.439941,372.510468 
	C403.903992,374.761292 410.007233,378.953613 413.995056,385.700836 
	C415.830872,388.807007 418.390991,388.936249 421.267242,388.583405 
	C439.414124,386.357208 456.859222,381.613281 473.395142,373.740845 
	C515.295288,353.792908 543.940125,321.141449 563.578064,279.783752 
	C566.152832,274.361176 566.109192,270.463989 562.105774,265.165741 
	C553.735046,254.087555 553.329590,241.590530 560.604492,229.568222 
	C567.644348,217.934250 578.529663,212.646698 591.913269,214.109482 
	C608.145203,215.883636 619.276672,228.169998 620.979797,244.883545 
	C622.338379,258.216095 612.553467,272.343353 598.283508,277.204651 
	C595.303528,278.219818 593.606506,279.800232 592.420654,282.648590 
	C589.670288,289.254883 586.989563,295.935120 583.619568,302.231567 
	C548.270386,368.277252 495.062347,408.694305 419.158386,416.287048 
	C416.755737,416.527374 415.549255,417.702515 414.820618,419.723236 
	C413.967560,422.089111 415.862518,423.009460 417.282928,424.061279 
	C448.159790,446.925476 482.418274,458.934143 521.226257,457.068542 
	C553.725098,455.506165 582.493835,444.149872 608.704590,425.366638 
	C612.103638,422.930817 612.468872,421.091339 610.649231,417.279388 
	C604.807922,405.042389 606.072876,393.050690 614.751953,382.670044 
	C623.390503,372.337952 634.940063,368.716919 648.052063,372.058105 
	C652.265076,373.131683 654.103210,371.843414 656.054199,368.602875 
	C673.604614,339.452515 682.000244,308.200317 677.726624,274.091644 
	C673.397583,239.540741 659.060120,210.045563 632.515259,187.077988 
	C603.689087,162.136612 565.881958,160.335480 535.539185,183.231750 
	C504.975647,206.294632 490.799194,238.418228 488.498352,275.904388 
	C487.145599,297.944366 492.501343,318.888489 502.994812,338.358063 
	C504.897369,341.888031 504.464813,343.940247 501.376129,346.310028 
	C495.681793,350.679016 489.813446,354.730774 483.630432,358.382477 
	C480.391785,360.295227 478.830292,359.578705 477.038483,356.379272 
	C461.060120,327.848114 454.696747,297.153656 458.098053,264.858490 
	C462.253174,225.405731 479.083771,191.700256 508.660828,165.103256 
	C531.247742,144.792145 557.925537,134.516586 588.755127,136.617874 
	C591.265198,136.788956 593.797058,136.640472 596.734497,136.640472 
	C595.135010,134.267761 593.198181,133.535538 591.478271,132.603195 
	C569.313477,120.588181 545.581238,113.658035 520.451965,112.553535 
	C486.175323,111.046967 454.528320,119.875389 425.695648,138.663330 
	C422.521179,140.731903 421.273834,142.904694 422.869568,147.170456 
M356.947479,349.600952 
	C360.151276,356.937164 363.915833,363.984406 368.078613,370.812347 
	C369.015259,372.348694 369.358093,375.041870 372.208496,374.182098 
	C374.936401,373.359283 374.638458,370.962555 374.667694,368.794525 
	C375.151489,332.932587 386.956543,300.991425 408.303955,272.441132 
	C410.477051,269.534851 410.553741,267.547943 408.602448,264.552948 
	C399.544586,250.650192 392.784180,235.675446 388.452728,219.628250 
	C385.889801,210.133072 383.783020,200.542709 383.609100,190.676834 
	C383.515137,185.346954 379.598236,184.387100 375.903534,182.953613 
	C372.084839,181.472000 371.348541,184.909927 370.084259,186.921768 
	C352.306458,215.211914 342.938843,246.169556 342.507294,279.503601 
	C342.196320,303.520935 346.720612,326.836273 356.947479,349.600952 
z"/>
</svg>